<?xml version="1.0" encoding="utf-8"?>
<!-- Generator: Adobe Illustrator 24.0.0, SVG Export Plug-In . SVG Version: 6.00 Build 0)  -->
<svg version="1.1" id="Layer_1" xmlns="http://www.w3.org/2000/svg" xmlns:xlink="http://www.w3.org/1999/xlink" x="0px" y="0px"
	 viewBox="0 0 256 256" style="enable-background:new 0 0 256 256;" xml:space="preserve">
<style type="text/css">
	.st0{fill:#161414;}
	.st1{fill:#141313;}
</style>
<path class="st0" d="M152.8,241.35c-1.15-31.13,8.07-47.27,23.06-63.41c-10.38,1.15-20.75,5.76-29.97,4.61
	c27.67-9.22,59.95-33.43,58.79-41.5c-40.35-16.14-78.39,17.29-136.03,12.68c3.46,25.36,28.82,43.81,41.5,48.42
	c-6.92,0-11.53-1.15-21.9-4.61C97.46,215.99,119.37,237.89,152.8,241.35z"/>
<path class="st1" d="M11,79.96C12.15,98.4,32.9,118,77.86,118c14.99,0,127.89-1.15,137.19-1.15c33.43,0,42.65-39.2,8.07-39.2
	c-32.28,0-51.88,18.45-79.55,20.75c18.45-3.46,40.35-14.99,44.96-21.9c-4.61-26.52-8.07-63.41-27.67-63.41
	c-16.14,0-27.67,24.21-33.43,32.28c2.31-5.76,5.76-13.83,5.76-16.14c0-3.65-12.68-16.14-21.9-16.14
	c-10.38,0-24.21,40.35-31.13,85.31C51.35,98.4,27.14,89.18,11,79.96z"/>
<path class="st0" d="M182.77,115.69c1.32,6.28-2.15,13.69-10.29,16.81c-8.79,3.37-17.97,0.75-20.49-5.85
	c-0.78-2.05-1.49-6.35,0.81-8.66c-1.15,3.46-0.14,6.05,1.08,7.65c3.94,5.17,11.78,5.82,17.52,1.45c3.71-2.83,5.61-7.06,5.44-11.09
	c-25.92,0.24-58.98,0.55-79.98,0.72c-0.1,3.56,1.36,7.29,4.3,10.11c5.2,5,13.07,5.25,17.57,0.56c2.68-2.79,3.55-6.7,2.73-10.46
	c1.9,3.27,2.43,6.88,1.11,10.09c-2.68,6.53-11.91,8.94-20.62,5.37c-7.56-3.1-12.2-9.66-11.56-15.62c-5.89,0.04-10.3,0.07-12.53,0.07
	c-1.91,0-3.77-0.05-5.6-0.12c-2.33,0.07-4.78-1.04-4.78-1.04c5.76,10.38,21.9,23.06,38.04,23.06s24.21-11.53,31.13-11.53
	s20.75,12.68,32.28,12.68c18.45,0,35.49-20.54,36.86-24.15C200.31,115.8,191.37,115.62,182.77,115.69z"/>
</svg>
